<svg width="64" height="64" viewBox="0 0 64 64" fill="none" xmlns="http://www.w3.org/2000/svg">
<g id="Anywhere" clip-path="url(#clip0_2_6133)">
<g id="64x64">
<g id="Commercial">
<path id="Vector" d="M11 7.5H31C33.21 7.5 35 9.29 35 11.5V56.5H11C8.79 56.5 7 54.71 7 52.5V11.5C7 9.29 8.79 7.5 11 7.5Z" fill="#C3E4BC"/>
<path id="Vector_2" d="M53 56.5H36C35.4477 56.5 35 56.0523 35 55.5V23.5C35 22.9477 35.4477 22.5 36 22.5H50.5858C50.851 22.5 51.1054 22.6054 51.2929 22.7929L56.7071 28.2071C56.8946 28.3946 57 28.649 57 28.9142V52.5C57 54.71 55.21 56.5 53 56.5Z" fill="#C3E4BC"/>
<path id="Vector_3" d="M18.18 34H12.82C12.3671 34 12 34.3671 12 34.82V40.18C12 40.6329 12.3671 41 12.82 41H18.18C18.6329 41 19 40.6329 19 40.18V34.82C19 34.3671 18.6329 34 18.18 34Z" fill="#598B4D"/>
<path id="Vector_4" d="M29.18 34H23.82C23.3671 34 23 34.3671 23 34.82V40.18C23 40.6329 23.3671 41 23.82 41H29.18C29.6329 41 30 40.6329 30 40.18V34.82C30 34.3671 29.6329 34 29.18 34Z" fill="#598B4D"/>
<path id="Vector_5" d="M51.83 34H40.17C39.5238 34 39 34.5238 39 35.17V39.83C39 40.4762 39.5238 41 40.17 41H51.83C52.4762 41 53 40.4762 53 39.83V35.17C53 34.5238 52.4762 34 51.83 34Z" fill="#598B4D"/>
<path id="Vector_6" d="M51.83 45H40.17C39.5238 45 39 45.5238 39 46.17V50.83C39 51.4762 39.5238 52 40.17 52H51.83C52.4762 52 53 51.4762 53 50.83V46.17C53 45.5238 52.4762 45 51.83 45Z" fill="#598B4D"/>
<path id="Vector_7" d="M18.18 23H12.82C12.3671 23 12 23.3671 12 23.82V29.18C12 29.6329 12.3671 30 12.82 30H18.18C18.6329 30 19 29.6329 19 29.18V23.82C19 23.3671 18.6329 23 18.18 23Z" fill="#598B4D"/>
<path id="Vector_8" d="M29.18 23H23.82C23.3671 23 23 23.3671 23 23.82V29.18C23 29.6329 23.3671 30 23.82 30H29.18C29.6329 30 30 29.6329 30 29.18V23.82C30 23.3671 29.6329 23 29.18 23Z" fill="#598B4D"/>
<path id="Vector_9" d="M18.18 12H12.82C12.3671 12 12 12.3671 12 12.82V18.18C12 18.6329 12.3671 19 12.82 19H18.18C18.6329 19 19 18.6329 19 18.18V12.82C19 12.3671 18.6329 12 18.18 12Z" fill="#598B4D"/>
<path id="Vector_10" d="M29.18 12H23.82C23.3671 12 23 12.3671 23 12.82V18.18C23 18.6329 23.3671 19 23.82 19H29.18C29.6329 19 30 18.6329 30 18.18V12.82C30 12.3671 29.6329 12 29.18 12Z" fill="#598B4D"/>
<path id="Vector_11" d="M18.18 45H12.82C12.3671 45 12 45.3671 12 45.82V51.18C12 51.6329 12.3671 52 12.82 52H18.18C18.6329 52 19 51.6329 19 51.18V45.82C19 45.3671 18.6329 45 18.18 45Z" fill="#598B4D"/>
<path id="Vector_12" d="M29.18 45H23.82C23.3671 45 23 45.3671 23 45.82V51.18C23 51.6329 23.3671 52 23.82 52H29.18C29.6329 52 30 51.6329 30 51.18V45.82C30 45.3671 29.6329 45 29.18 45Z" fill="#598B4D"/>
</g>
</g>
</g>
<defs>
<clipPath id="clip0_2_6133">
<rect width="64" height="64" fill="white"/>
</clipPath>
</defs>
</svg>
