<svg width="64" height="64" viewBox="0 0 64 64" fill="none" xmlns="http://www.w3.org/2000/svg">
<g id="compliant with">
<path id="Vector" d="M58.9378 32.1484C58.9378 34.8684 55.0444 36.9306 54.2444 39.384C53.4444 41.8373 55.3289 45.8906 53.7822 48.0062C52.2356 50.1217 47.8622 49.5351 45.7289 51.0995C43.5956 52.664 42.8489 56.984 40.3067 57.8195C37.7644 58.6551 34.6889 55.5795 31.9689 55.5795C29.2489 55.5795 26.0844 58.6195 23.6311 57.8195C21.1778 57.0195 20.3244 52.6462 18.2089 51.0995C16.0933 49.5528 11.7022 50.1395 10.1556 48.0062C8.60889 45.8728 10.5289 41.9262 9.69333 39.384C8.85778 36.8417 5 34.8684 5 32.1484C5 29.4284 8.89333 27.3662 9.69333 24.9128C10.4933 22.4595 8.60889 18.4062 10.1556 16.2906C11.7022 14.1751 16.0756 14.7617 18.2089 13.1973C20.3422 11.6328 21.0889 7.31284 23.6311 6.47729C26.1733 5.64173 29.2489 8.71729 31.9689 8.71729C34.6889 8.71729 37.8533 5.67729 40.3067 6.47729C42.76 7.27729 43.6133 11.6506 45.7289 13.1973C47.8444 14.744 52.2356 14.1573 53.7822 16.2906C55.3289 18.424 53.4089 22.3706 54.2444 24.9128C55.08 27.4551 58.9378 29.4284 58.9378 32.1484Z" fill="#598B4D"/>
<path id="Vector_2" d="M58.9378 32.1484C58.9378 34.8684 55.0444 36.9306 54.2444 39.384C53.4444 41.8373 55.3289 45.8906 53.7822 48.0062C52.2356 50.1217 47.8622 49.5351 45.7289 51.0995C43.5956 52.664 42.8489 56.984 40.3067 57.8195C37.7644 58.6551 34.6889 55.5795 31.9689 55.5795C29.2489 55.5795 26.0844 58.6195 23.6311 57.8195C21.1778 57.0195 20.3244 52.6462 18.2089 51.0995C16.0933 49.5528 11.7022 50.1395 10.1556 48.0062C8.60889 45.8728 10.5289 41.9262 9.69333 39.384C8.85778 36.8417 5 34.8684 5 32.1484C5 29.4284 8.89333 27.3662 9.69333 24.9128C10.4933 22.4595 8.60889 18.4062 10.1556 16.2906C11.7022 14.1751 16.0756 14.7617 18.2089 13.1973C20.3422 11.6328 21.0889 7.31284 23.6311 6.47729C26.1733 5.64173 29.2489 8.71729 31.9689 8.71729C34.6889 8.71729 37.8533 5.67729 40.3067 6.47729C42.76 7.27729 43.6133 11.6506 45.7289 13.1973C47.8444 14.744 52.2356 14.1573 53.7822 16.2906C55.3289 18.424 53.4089 22.3706 54.2444 24.9128C55.08 27.4551 58.9378 29.4284 58.9378 32.1484Z" fill="#C3E4BC"/>
<circle id="Ellipse 2242" cx="32" cy="32" r="19" fill="#598B4D"/>
<path id="Vector_3" d="M25 31.6549L30.522 37L41 26.3334" stroke="#C3E4BC" stroke-width="1.5" stroke-linecap="round" stroke-linejoin="round"/>
</g>
</svg>
