<svg width="56" height="56" viewBox="0 0 56 56" fill="none" xmlns="http://www.w3.org/2000/svg">
<g id="connectivity">
<path id="Vector" d="M48.5333 14.9333V9.296C48.5132 8.27979 47.6833 7.4663 46.6667 7.46667C45.6154 7.48422 44.7769 8.35035 44.7944 9.40203C44.7951 9.44123 44.797 9.4808 44.8 9.52V18.6667C44.8 20.7286 46.4714 22.4 48.5333 22.4V42.9333C48.5333 43.9641 47.6974 44.8 46.6667 44.8C45.6359 44.8 44.8 43.9641 44.8 42.9333V35.4667C44.8 32.374 42.2927 29.8667 39.2 29.8667H33.6V7.46667C33.6 5.40475 31.9286 3.73334 29.8667 3.73334H7.46667C5.40475 3.73334 3.73334 5.40475 3.73334 7.46667V48.5333C3.73334 50.5953 5.40475 52.2667 7.46667 52.2667H29.8667C31.9286 52.2667 33.6 50.5953 33.6 48.5333V33.6H39.2C40.2308 33.6 41.0667 34.4359 41.0667 35.4667V42.9333C41.0667 46.026 43.574 48.5333 46.6667 48.5333C49.7594 48.5333 52.2667 46.026 52.2667 42.9333V18.6667C52.2667 16.6047 50.5953 14.9333 48.5333 14.9333ZM26.8815 27.6248L17.1726 40.5698L17.1114 40.5429C16.9378 40.8367 17.2894 41.125 16.9239 41.125C16.3728 41.125 16.9239 41.3439 16.9239 40.7929C16.9239 40.6883 17.9085 39.6435 17.9384 39.5487L17.5009 39.375L19.077 30.5338C19.2786 29.9301 18.1374 29.3125 17.5009 29.3125H12.2509C11.4826 29.3125 10.4777 29.052 10.9384 28.4375L20.1607 15.4302L20.222 15.4571C20.3956 15.1633 19.4833 15.8461 19.8488 15.8461C20.3999 15.8461 19.6884 16.074 19.6884 16.625C18.2311 16.8816 18.7795 16.614 20.1259 16.625L21.0009 16.1875L19.077 24.9054C18.875 25.5095 19.3245 26.1333 19.961 26.1333H26.1356C26.9039 26.1333 27.3422 27.0103 26.8815 27.6248Z" fill="#C3E4BC"/>
<path id="Vector_2" d="M28.5842 25.4047L17.6836 41.9112C17.5847 42.1765 17.2459 42.3361 17.0004 42.3207C16.9185 42.3155 16.8366 42.3104 16.7605 42.2151C16.4444 42.0142 16.2215 41.6382 16.3317 41.1927L18.4494 29.7436L11.2461 29.2902C10.9187 29.2696 10.6844 29.0739 10.5378 28.7932C10.3911 28.5125 10.4956 28.1571 10.6763 27.8971L19.6562 15.794C19.9245 15.449 20.2576 15.3794 20.5793 15.4902C20.9011 15.6009 21.1239 15.9769 21.1012 16.3374L20.6474 23.5479L28.0145 24.0116C28.3419 24.0322 28.5761 24.2279 28.7228 24.5086C28.7876 24.7841 28.7649 25.1446 28.5842 25.4047Z" fill="#598B4D"/>
</g>
</svg>
