<svg width="64" height="64" viewBox="0 0 64 64" fill="none" xmlns="http://www.w3.org/2000/svg">
<g id="Easy installation">
<g id="Clip path group">
<mask id="mask0_2_6104" style="mask-type:luminance" maskUnits="userSpaceOnUse" x="5" y="5" width="54" height="54">
<g id="clippath">
<path id="Vector" d="M58.6663 5.33337H5.33301V58.6667H58.6663V5.33337Z" fill="white"/>
</g>
</mask>
<g mask="url(#mask0_2_6104)">
<g id="Group">
<g id="Group_2">
<path id="Vector_2" d="M57.666 37.3501L53.5993 34.1334C52.9493 33.6167 52.5993 32.8334 52.5993 32.0167V31.9834C52.5993 31.1501 52.966 30.3667 53.5993 29.8667L57.666 26.6501C58.5993 25.9167 58.9327 24.6501 58.466 23.5501L56.6827 19.2334C56.2327 18.1334 55.0993 17.4834 53.9327 17.6167L48.7827 18.2167C47.966 18.3167 47.1493 18.0167 46.566 17.4334C46.566 17.4334 46.566 17.4334 46.5493 17.4167C45.966 16.8334 45.666 16.0334 45.766 15.2001L46.366 10.0501C46.4993 8.86673 45.8493 7.75006 44.7493 7.30006L40.4327 5.5334C39.3327 5.0834 38.066 5.41673 37.3327 6.3334L34.116 10.4001C33.5993 11.0501 32.816 11.4001 31.9993 11.4001H31.966C31.1327 11.4001 30.3493 11.0501 29.8493 10.4001L26.6327 6.3334C25.8993 5.40006 24.6327 5.06673 23.5327 5.5334L19.216 7.31673C18.116 7.76673 17.466 8.90006 17.5993 10.0667L18.1993 15.2167C18.2993 16.0334 17.9993 16.8501 17.416 17.4334H17.3993C16.816 18.0334 15.9993 18.3334 15.1827 18.2334L10.0327 17.6334C8.84933 17.5001 7.73266 18.1501 7.28266 19.2501L5.53266 23.5667C5.08266 24.6667 5.416 25.9334 6.33266 26.6667L10.3993 29.8834C11.0493 30.4001 11.3993 31.1834 11.3993 32.0001V32.0334C11.3993 32.8667 11.0493 33.6501 10.3993 34.1501L6.33266 37.3667C5.39933 38.1001 5.066 39.3667 5.53266 40.4667L7.316 44.7834C7.766 45.8834 8.89933 46.5334 10.066 46.4001L15.216 45.8001C16.0327 45.7001 16.8493 46.0001 17.4327 46.5834C17.4327 46.5834 17.4327 46.5834 17.4493 46.6001C18.0327 47.1834 18.3327 47.9834 18.2327 48.8167L17.6327 53.9667C17.4993 55.1501 18.1493 56.2667 19.2493 56.7167L23.566 58.5001C24.666 58.9501 25.9327 58.6167 26.666 57.7001L29.8827 53.6334C30.3993 52.9834 31.1827 52.6334 31.9993 52.6334H32.0327C32.866 52.6334 33.6493 52.9834 34.1493 53.6334L37.366 57.7001C38.0993 58.6334 39.366 58.9667 40.466 58.5001L44.7827 56.7167C45.8827 56.2667 46.5327 55.1334 46.3993 53.9667L45.7993 48.8167C45.6993 48.0001 45.9993 47.1834 46.5827 46.6001C46.5827 46.6001 46.5827 46.6001 46.5993 46.5834C47.1827 46.0001 47.9827 45.7001 48.816 45.8001L53.966 46.4001C55.1493 46.5334 56.266 45.8834 56.716 44.7834L58.4993 40.4667C58.9493 39.3667 58.616 38.1001 57.6993 37.3667L57.666 37.3501ZM34.6493 39.6834C30.516 41.4001 25.7827 39.4334 24.066 35.3001C22.3493 31.1667 24.316 26.4334 28.4493 24.7167C32.5827 23.0001 37.316 24.9667 39.0327 29.1001C40.7493 33.2334 38.7827 37.9667 34.6493 39.6834Z" fill="#C3E4BC"/>
<path id="Vector_3" d="M31.999 43.6667C37.5219 43.6667 41.999 39.1896 41.999 33.6667C41.999 28.1439 37.5219 23.6667 31.999 23.6667C26.4762 23.6667 21.999 28.1439 21.999 33.6667C21.999 39.1896 26.4762 43.6667 31.999 43.6667Z" fill="#C3E4BC"/>
<path id="Vector_4" d="M41.6218 38.0566C42.9669 36.0833 43.6663 33.7446 43.6663 31.351C43.6663 28.9575 42.9489 26.6005 41.6218 24.6454C40.2587 22.6721 38.3576 21.1739 36.1337 20.3334V30.8211C36.1337 31.3327 35.9185 31.8078 35.5598 32.1732C35.2011 32.5569 34.6989 32.7396 34.1967 32.7579H29.8026C29.3005 32.7396 28.7983 32.5386 28.4396 32.1732C28.0809 31.8078 27.8657 31.3327 27.8657 30.8211V20.3334C25.6417 21.1739 23.7406 22.6904 22.3776 24.6454C21.0325 26.6187 20.333 28.9575 20.333 31.351C20.333 33.7446 21.0504 36.1016 22.3776 38.0566C23.7406 40.0299 25.6417 41.5282 27.8657 42.3686V56.5107C27.8657 57.6983 28.8162 58.6667 29.982 58.6667H31.9907H33.9994C35.1652 58.6667 36.1157 57.6983 36.1157 56.5107V42.3686C38.3397 41.5282 40.2408 40.0116 41.6038 38.0566H41.6218Z" fill="#598B4D"/>
</g>
</g>
</g>
</g>
</g>
</svg>
