<svg width="64" height="64" viewBox="0 0 64 64" fill="none" xmlns="http://www.w3.org/2000/svg">
<g id="ph:clock-fill">
<path id="Vector" d="M32 6C26.8577 6 21.8309 7.52487 17.5552 10.3818C13.2795 13.2387 9.94702 17.2994 7.97914 22.0502C6.01127 26.8011 5.49638 32.0288 6.49959 37.0723C7.50281 42.1159 9.97907 46.7486 13.6152 50.3848C17.2514 54.0209 21.8842 56.4972 26.9277 57.5004C31.9712 58.5036 37.1989 57.9887 41.9498 56.0209C46.7007 54.053 50.7613 50.7205 53.6182 46.4448C56.4751 42.1691 58 37.1423 58 32C57.9927 25.1066 55.2511 18.4976 50.3767 13.6233C45.5024 8.74889 38.8934 6.00728 32 6ZM46 34H32C31.4696 34 30.9609 33.7893 30.5858 33.4142C30.2107 33.0391 30 32.5304 30 32V18C30 17.4696 30.2107 16.9609 30.5858 16.5858C30.9609 16.2107 31.4696 16 32 16C32.5304 16 33.0392 16.2107 33.4142 16.5858C33.7893 16.9609 34 17.4696 34 18V30H46C46.5304 30 47.0392 30.2107 47.4142 30.5858C47.7893 30.9609 48 31.4696 48 32C48 32.5304 47.7893 33.0391 47.4142 33.4142C47.0392 33.7893 46.5304 34 46 34Z" fill="#C3E4BC"/>
<path id="Vector 7" d="M32 17.3333V32H46.6667" stroke="#598B4D" stroke-width="4" stroke-linecap="round" stroke-linejoin="round"/>
</g>
</svg>
